# xmcd CD database file
#
# Track frame offsets:
#	150
#	13610
#	30827
#	50855
#	66950
#	83420
#	98502
#	115125
#	133367
#	147637
#	161947
#	176182
#
# Disc length: 2507 seconds
#
# Revision: 0
# Processed by: cddbd v1.5.1PL2 Copyright (c) Steve Scherf et al.
# Submitted via: CDex 1.51
#
DISCID=a709c90c
DTITLE=Chris Isaak - San Francisco Days
DYEAR=1993
DGENRE=Rock
TTITLE0=San Francisco Days
TTITLE1=Beautiful Homes
TTITLE2=Round N' Round
TTITLE3=Two Hearts
TTITLE4=Can't Do A Thing (To Stop Me)
TTITLE5=Except The New Girl
TTITLE6=Waiting
TTITLE7=Move Along
TTITLE8=I Want Your Love
TTITLE9=5:15
TTITLE10=Lonely With A Broken Heart
TTITLE11=Solitary Man
EXTD=YEAR: 1993
EXTT0=
EXTT1=
EXTT2=
EXTT3=
EXTT4=
EXTT5=
EXTT6=
EXTT7=
EXTT8=
EXTT9=
EXTT10=
EXTT11=
PLAYORDER=
